Coordinates
version=1
nRows=39
nColumns=30
inDegrees=yes

Units are S.I. units (second, meters, Newtons, ...)
Angles are in degrees.

endheader
time	floatyaw	floatroll	floatpitch	floatx	floaty	floatz	pro_sup_l	deviation_l	flexion_l	cmc_flexion_l	cmc_abduction_l	mp_flexion_l	ip_flexion_l	2mcp_flexion_l	2mcp_abduction_l	2pm_flexion_l	2md_flexion_l	3mcp_flexion_l	3mcp_abduction_l	3pm_flexion_l	3md_flexion_l	4mcp_flexion_l	4mcp_abduction_l	4pm_flexion_l	4md_flexion_l	5mcp_flexion_l	5mcp_abduction_l	5pm_flexion_l	5md_flexion_l
0.005000	-160.147433	-5.066637	-73.570646	-0.072127	-0.114782	-0.123739	-8.544847	-34.231537	-31.493975	16.893156	9.106827	-35.119889	-56.270110	63.773145	16.353114	63.169155	61.537525	64.189715	6.354893	83.320809	55.781489	48.413782	-6.265040	97.083593	73.826928	6.422063	-13.599881	91.989123	75.628758
0.015000	-160.147433	-5.066637	-73.570646	-0.071471	-0.110664	-0.122916	-10.176337	-34.251592	-31.148435	14.697124	7.863379	-35.355203	-56.033234	66.095947	16.424445	62.628705	63.522108	66.732499	6.322263	85.966500	57.512194	50.526579	-6.105614	100.404224	75.962782	5.897037	-13.688375	92.145485	77.197346
0.025000	-160.147433	-5.066637	-73.570646	-0.070241	-0.106695	-0.121597	-10.699118	-33.970529	-29.697181	12.645303	5.453378	-35.098149	-55.172362	66.823177	16.320022	62.022612	65.068813	67.864098	6.290167	87.725440	58.713956	51.534920	-5.937440	102.021020	76.966815	5.224229	-13.778788	91.356983	77.995798
0.035000	-160.147433	-5.066637	-73.570646	-0.068795	-0.103280	-0.120128	-10.443565	-33.583638	-27.659114	11.066103	2.681887	-34.579048	-54.057507	66.514829	16.191156	61.571828	66.410786	68.076529	6.272995	88.821489	59.570942	51.614500	-5.797461	102.535824	77.346193	4.436632	-13.878845	90.224359	78.327925
0.045000	-160.147433	-5.066637	-73.570646	-0.067407	-0.100841	-0.118810	-9.824048	-33.189781	-25.558172	10.224607	0.439297	-34.056828	-53.108052	65.715678	16.121001	61.354448	67.653624	67.857015	6.268346	89.468712	60.237279	51.084833	-5.703597	102.568565	77.515107	3.604295	-13.959768	89.345540	78.444840
0.055000	-160.147433	-5.066637	-73.570646	-0.066213	-0.099640	-0.117846	-9.207539	-32.781076	-23.771380	10.228815	-0.659385	-33.706932	-52.611068	64.793436	16.122752	61.325740	68.764508	67.513737	6.268038	89.826786	60.817686	50.274902	-5.656729	102.557516	77.700554	2.824568	-13.991483	89.088095	78.503677
0.065000	-160.147433	-5.066637	-73.570646	-0.065231	-0.099643	-0.117325	-8.814079	-32.288943	-22.467901	10.998246	-0.480220	-33.569850	-52.624590	63.897935	16.164489	61.381006	69.641380	67.132672	6.266771	89.996351	61.376575	49.414336	-5.646504	102.686996	77.959787	2.191974	-13.969072	89.473274	78.572592
0.075000	-160.147433	-5.066637	-73.570646	-0.064412	-0.100529	-0.117223	-8.690764	-31.657514	-21.635175	12.302291	0.658621	-33.576122	-53.004110	63.031112	16.203137	61.423489	70.205017	66.663441	6.264675	90.036745	61.946108	48.605673	-5.658265	102.936571	78.253896	1.766200	-13.914816	90.241412	78.660177
0.085000	-160.147433	-5.066637	-73.570646	-0.063709	-0.101825	-0.117437	-8.758683	-30.898155	-21.155255	13.841841	2.197215	-33.616622	-53.513416	62.163910	16.211072	61.404118	70.456045	66.054754	6.264836	89.987767	62.523224	47.874086	-5.678773	103.192805	78.519640	1.560565	-13.860889	91.045288	78.748979
0.095000	-160.147433	-5.066637	-73.570646	-0.063110	-0.103083	-0.117823	-8.896018	-30.093453	-20.886441	15.335692	3.594896	-33.606933	-53.940925	61.320235	16.185985	61.321656	70.473083	65.343057	6.269699	89.882720	63.069127	47.237695	-5.699344	103.353540	78.711108	1.552597	-13.829891	91.639873	78.821404
0.105000	-160.147433	-5.066637	-73.570646	-0.062634	-0.104025	-0.118243	-9.010266	-29.354884	-20.716576	16.581723	4.517771	-33.512213	-54.162046	60.582044	16.144245	61.195703	70.367896	64.647082	6.279526	89.747886	63.526000	46.738389	-5.716206	103.380297	78.811472	1.699750	-13.826794	91.962421	78.873246
0.115000	-160.147433	-5.066637	-73.570646	-0.062302	-0.104589	-0.118595	-9.069829	-28.766759	-20.577744	17.480451	4.893407	-33.335175	-54.140736	60.030732	16.105921	61.037152	70.232816	64.092902	6.293280	89.593784	63.847614	46.418221	-5.728950	103.294319	78.827549	1.947244	-13.843827	92.089000	78.914343
0.125000	-160.147433	-5.066637	-73.570646	-0.062100	-0.104879	-0.118820	-9.094271	-28.350820	-20.434358	18.025117	4.848216	-33.093535	-53.902225	59.681565	16.081922	60.835952	70.109754	63.734963	6.310216	89.410083	64.025462	46.275132	-5.738513	103.141734	78.779236	2.230676	-13.870653	92.132138	78.960079
0.135000	-160.147433	-5.066637	-73.570646	-0.061982	-0.105075	-0.118905	-9.123072	-28.066433	-20.264659	18.271885	4.589431	-32.809110	-53.508999	59.461531	16.069899	60.570505	69.990117	63.527086	6.330548	89.172404	64.094148	46.242723	-5.745875	102.959727	78.690535	2.482738	-13.901519	92.158854	79.020611
0.145000	-160.147433	-5.066637	-73.570646	-0.061879	-0.105340	-0.118858	-9.185275	-27.838927	-20.049133	18.304642	4.298020	-32.509860	-53.047063	59.241476	16.058849	60.228147	69.836578	63.353964	6.354905	88.858423	64.113998	46.212206	-5.751789	102.762146	78.583846	2.647383	-13.936256	92.168461	79.094136
0.155000	-160.147433	-5.066637	-73.570646	-0.061731	-0.105761	-0.118705	-9.282929	-27.596795	-19.768562	18.204866	4.072035	-32.231286	-52.610282	58.896791	16.037520	59.820730	69.610469	63.094881	6.383437	88.462971	64.142565	46.080758	-5.757078	102.544316	78.476535	2.695925	-13.977195	92.119635	79.166926
0.165000	-160.147433	-5.066637	-73.570646	-0.061506	-0.106342	-0.118469	-9.390319	-27.299319	-19.407896	18.033063	3.924535	-32.007013	-52.274343	58.359672	16.001011	59.384856	69.292515	62.679493	6.415386	88.003358	64.211318	45.795259	-5.762809	102.296260	78.378899	2.635999	-14.025784	91.971989	79.219186
0.175000	-160.147433	-5.066637	-73.570646	-0.061211	-0.107026	-0.118170	-9.464808	-26.944839	-18.961245	17.824470	3.816129	-31.852839	-52.069477	57.638601	15.952581	58.967565	68.892000	62.109372	6.449278	87.513647	64.318444	45.368232	-5.770016	102.013697	78.293811	2.507517	-14.081174	91.713468	79.233369
0.185000	-160.147433	-5.066637	-73.570646	-0.060876	-0.107733	-0.117824	-9.463239	-26.560496	-18.434968	17.596082	3.696043	-31.757773	-51.970704	56.802878	15.901056	58.606949	68.444420	61.443227	6.483378	87.032911	64.437954	44.862600	-5.779192	101.702083	78.218259	2.366814	-14.140774	91.364440	79.200814
0.195000	-160.147433	-5.066637	-73.570646	-0.060543	-0.108398	-0.117447	-9.357585	-26.182160	-17.847484	17.356756	3.532247	-31.691061	-51.915670	55.946979	15.856256	58.318329	68.000041	60.761775	6.516071	86.593720	64.537087	44.358618	-5.790005	101.374285	78.146012	2.266427	-14.201530	90.964889	79.123854
0.205000	-160.147433	-5.066637	-73.570646	-0.060242	-0.108985	-0.117053	-9.144344	-25.835642	-17.225309	17.112276	3.322254	-31.621605	-51.841482	55.153452	15.824886	58.092168	67.607227	60.132470	6.546148	86.214697	64.592637	43.921222	-5.801536	101.045121	78.070401	2.238999	-14.260882	90.556410	79.013345
0.215000	-160.147433	-5.066637	-73.570646	-0.059982	-0.109499	-0.116659	-8.844776	-25.526951	-16.596008	16.863728	3.086856	-31.536994	-51.719110	54.467034	15.808271	57.903590	67.295596	59.587628	6.573100	85.898133	64.600418	43.580083	-5.812925	100.726105	77.986958	2.289506	-14.317083	90.168301	78.883823
0.225000	-160.147433	-5.066637	-73.570646	-0.059753	-0.109968	-0.116276	-8.496966	-25.243312	-15.980607	16.604708	2.855550	-31.449954	-51.565981	53.885164	15.802278	57.727385	67.065176	59.120084	6.597340	85.631980	64.576338	43.325472	-5.823995	100.422544	77.895773	2.395736	-14.369107	89.811924	78.748937
0.235000	-160.147433	-5.066637	-73.570646	-0.059531	-0.110431	-0.115911	-8.143561	-24.961691	-15.389167	16.323896	2.652752	-31.388739	-51.431274	53.365516	15.799172	57.549507	66.887548	58.693882	6.620088	85.395134	64.550221	43.117494	-5.835390	100.133560	77.802632	2.516145	-14.416477	89.482858	78.618890
0.245000	-160.147433	-5.066637	-73.570646	-0.059289	-0.110923	-0.115566	-7.819589	-24.659740	-14.821871	16.014178	2.489562	-31.377769	-51.363954	52.847540	15.790789	57.369098	66.720587	58.264040	6.642801	85.164775	64.554952	42.904261	-5.848086	99.854393	77.717509	2.604419	-14.459260	89.167909	78.500118
0.255000	-160.147433	-5.066637	-73.570646	-0.059011	-0.111456	-0.115241	-7.543927	-24.324753	-14.274491	15.682926	2.361801	-31.420208	-51.382197	52.279837	15.771830	57.192285	66.530130	57.797391	6.666369	84.923952	64.614493	42.643050	-5.862566	99.579661	77.650159	2.627155	-14.498139	88.853631	78.395819
0.265000	-160.147433	-5.066637	-73.570646	-0.058698	-0.112027	-0.114936	-7.316640	-23.957885	-13.744462	15.355453	2.254038	-31.493068	-51.461444	51.641545	15.741815	57.024418	66.306288	57.286154	6.690555	84.666998	64.734756	42.316758	-5.878260	99.306166	77.604701	2.577164	-14.534254	88.533322	78.305713
0.275000	-160.147433	-5.066637	-73.570646	-0.058365	-0.112612	-0.114651	-7.122684	-23.572815	-13.234118	15.067018	2.149033	-31.558596	-51.548013	50.948289	15.704785	56.866823	66.065306	56.749016	6.714029	84.400754	64.900967	41.939112	-5.893664	99.034465	77.576360	2.475282	-14.568689	88.210013	78.225252
0.285000	-160.147433	-5.066637	-73.570646	-0.058036	-0.113183	-0.114389	-6.940291	-23.190042	-12.750037	14.847105	2.039527	-31.585524	-51.590187	50.241606	15.667137	56.718884	65.837986	56.220596	6.734977	84.141191	65.083261	41.547024	-5.907095	98.769164	77.552754	2.359476	-14.601873	87.894416	78.146428
0.295000	-160.147433	-5.066637	-73.570646	-0.057737	-0.113713	-0.114149	-6.750419	-22.829445	-12.299663	14.706608	1.935874	-31.566371	-51.567443	49.569228	15.635006	56.581486	65.653832	55.735491	6.751894	83.907016	65.248585	41.184300	-5.917582	98.518010	77.519544	2.267096	-14.633314	87.599164	78.061340
0.305000	-160.147433	-5.066637	-73.570646	-0.057483	-0.114186	-0.113930	-6.543214	-22.503971	-11.887207	14.636072	1.863496	-31.519508	-51.499734	48.966516	15.612444	56.457921	65.529909	55.314653	6.764133	83.712983	65.373390	40.884208	-5.925338	98.289742	77.467498	2.219433	-14.661841	87.332722	77.966713
0.315000	-160.147433	-5.066637	-73.570646	-0.057277	-0.114598	-0.113729	-6.319154	-22.216417	-11.510966	14.613142	1.850080	-31.475963	-51.432364	48.446434	15.600844	56.352117	65.467301	54.959671	6.772027	83.565472	65.450807	40.658239	-5.931547	98.091074	77.396987	2.215923	-14.686205	87.096479	77.866101
0.325000	-160.147433	-5.066637	-73.570646	-0.057111	-0.114958	-0.113543	-6.085562	-21.959985	-11.163637	14.611361	1.909170	-31.461139	-51.407835	48.000083	15.599366	56.266653	65.453276	54.656325	6.776620	83.461444	65.489306	40.495456	-5.937656	97.923848	77.317352	2.239868	-14.705749	86.886351	77.768222
0.335000	-160.147433	-5.066637	-73.570646	-0.056973	-0.115283	-0.113370	-5.851270	-21.721845	-10.835553	14.606119	2.029062	-31.482966	-51.443350	47.605086	15.605831	56.201857	65.466870	54.384178	6.779235	83.390258	65.505135	40.371617	-5.944653	97.783643	77.241630	2.271231	-14.720893	86.697280	77.682674
0.345000	-160.147433	-5.066637	-73.570646	-0.056847	-0.115595	-0.113208	-5.622352	-21.487889	-10.518701	14.579464	2.172829	-31.532125	-51.527526	47.236422	15.617566	56.155317	65.486479	54.126164	6.781099	83.336999	65.513881	40.262148	-5.952715	97.660612	77.179622	2.298558	-14.733240	86.527108	77.615430
0.355000	-160.147433	-5.066637	-73.570646	-0.056724	-0.115912	-0.113058	-5.400189	-21.246591	-10.208764	14.525344	2.289634	-31.592095	-51.635982	46.874396	15.631825	56.121510	65.497084	53.873162	6.783126	83.286280	65.525411	40.151631	-5.961314	97.542391	77.132821	2.323699	-14.745232	86.376959	77.565700
0.365000	-160.147433	-5.066637	-73.570646	-0.056600	-0.116245	-0.112915	-5.181488	-20.990923	-9.903951	14.452373	2.332417	-31.650958	-51.751720	46.507278	15.645875	56.092695	65.493878	53.622846	6.785826	83.225821	65.543111	40.036121	-5.969603	97.417872	77.093540	2.358262	-14.759422	86.248025	77.524933
0.375000	-160.147433	-5.066637	-73.570646	-0.056476	-0.116599	-0.112774	-4.959383	-20.718697	-9.602049	14.379784	2.275095	-31.706300	-51.873141	46.130166	15.657143	56.061696	65.480789	53.376217	6.789296	83.149038	65.565664	39.920080	-5.976826	97.280120	77.048405	2.415873	-14.777579	86.137617	77.478640
0.385000	-160.147433	-5.066637	-73.570646	-0.056354	-0.116971	-0.112627	-4.725207	-20.432188	-9.298614	14.326153	2.122948	-31.760568	-52.003975	45.743390	15.663770	56.025022	65.465776	53.135632	6.793263	83.055825	65.589068	39.812231	-5.982605	97.127247	76.984169	2.505932	-14.799950	86.037703	77.411318
